<?xml version="1.0" standalone="no"?>
<!DOCTYPE svg PUBLIC "-//W3C//DTD SVG 20010904//EN"
 "http://www.w3.org/TR/2001/REC-SVG-20010904/DTD/svg10.dtd">
<svg version="1.0" xmlns="http://www.w3.org/2000/svg"
 width="463.000000pt" height="200.000000pt" viewBox="0 0 463.000000 200.000000"
 preserveAspectRatio="xMidYMid meet">

<g transform="translate(0.000000,200.000000) scale(0.100000,-0.100000)"
fill="#000000" stroke="none">
<path d="M3443 1958 c-25 -15 -33 -27 -33 -49 0 -26 3 -29 33 -29 18 0 38 -5
45 -12 13 -13 18 -388 5 -388 -5 0 -69 79 -143 175 -74 95 -139 174 -145 174
-5 0 -62 -28 -125 -63 l-115 -63 -3 -178 c-3 -194 -3 -195 -59 -195 -39 0 -46
-28 -11 -38 13 -3 47 -18 76 -34 40 -21 68 -28 108 -28 l54 0 0 35 0 35 50 0
c38 0 50 4 50 15 0 10 -10 15 -33 15 -18 0 -38 5 -45 12 -13 13 -18 388 -4
387 4 0 94 -112 201 -250 l194 -249 63 0 64 0 0 299 c0 171 4 311 10 325 8 21
16 26 45 26 l35 0 0 50 0 50 -142 -1 c-125 -1 -147 -3 -175 -21z"/>
<path d="M2558 1487 c-32 -17 -58 -37 -58 -44 0 -6 9 -32 20 -58 11 -26 20
-49 20 -51 0 -2 -16 -4 -35 -4 -30 0 -35 -3 -35 -24 l0 -23 58 13 c31 8 110
14 175 14 71 0 117 4 117 10 0 6 -20 10 -44 10 -54 0 -69 16 -110 119 -16 39
-34 71 -40 71 -6 0 -37 -15 -68 -33z"/>
<path d="M2225 1310 c-3 -5 -1 -10 4 -10 6 0 11 5 11 10 0 6 -2 10 -4 10 -3 0
-8 -4 -11 -10z"/>
</g>
</svg>
