<?xml version="1.0" standalone="no"?>
<!DOCTYPE svg PUBLIC "-//W3C//DTD SVG 20010904//EN"
 "http://www.w3.org/TR/2001/REC-SVG-20010904/DTD/svg10.dtd">
<svg version="1.0" xmlns="http://www.w3.org/2000/svg"
 width="463.000000pt" height="200.000000pt" viewBox="0 0 463.000000 200.000000"
 preserveAspectRatio="xMidYMid meet">

<g transform="translate(0.000000,200.000000) scale(0.100000,-0.100000)"
fill="#000000" stroke="none">
<path d="M3373 1888 c-25 -15 -33 -27 -33 -49 0 -26 3 -29 33 -29 18 0 38 -5
45 -12 13 -13 18 -388 5 -388 -5 0 -69 79 -143 175 -74 95 -139 174 -145 174
-5 0 -62 -28 -125 -63 l-115 -63 -3 -170 -2 -170 46 -18 c26 -10 70 -40 97
-66 43 -41 57 -49 89 -49 27 0 38 4 38 15 0 8 -7 15 -15 15 -10 0 -15 11 -15
35 0 27 -4 35 -18 35 -39 0 -42 18 -42 212 0 103 3 188 8 187 4 0 70 -81 146
-180 76 -98 145 -179 151 -179 7 0 15 -10 19 -23 3 -13 22 -44 42 -70 l37 -47
63 0 64 0 0 299 c0 171 4 311 10 325 8 21 16 26 45 26 l35 0 0 50 0 50 -142
-1 c-125 -1 -147 -3 -175 -21z"/>
<path d="M2488 1417 c-32 -17 -58 -36 -58 -42 0 -26 34 -95 46 -91 6 2 41 10
75 17 35 6 65 13 67 14 7 6 -53 135 -62 135 -6 0 -37 -15 -68 -33z"/>
<path d="M2593 1189 c-65 -19 -45 -29 56 -29 94 0 101 1 101 20 0 18 -6 20
-62 19 -35 0 -77 -5 -95 -10z"/>
<path d="M2134 1175 c-18 -14 -18 -14 9 -15 17 0 27 5 27 15 0 19 -11 19 -36
0z"/>
<path d="M2800 1175 c0 -10 9 -15 27 -15 29 0 29 2 -4 19 -19 10 -23 9 -23 -4z"/>
</g>
</svg>
